<?xml version="1.0" encoding="utf-8"?>
<svg width="50px" height="50px" viewBox="0 0 50 50" version="1.1" xmlns:xlink="http://www.w3.org/1999/xlink" xmlns="http://www.w3.org/2000/svg">
  <desc>Created with Lunacy</desc>
  <defs>
    <linearGradient x1="0.5" y1="-0.81306386" x2="0.5" y2="1.0415318" id="gradient_1">
      <stop offset="0" stop-color="#DFF9FF" />
      <stop offset="0" stop-color="#DFF9FF" />
      <stop offset="0.426" stop-color="#D8F8FF" />
      <stop offset="0.631" stop-color="#C5F4FF" />
      <stop offset="0.834" stop-color="#A5EEFF" />
      <stop offset="1" stop-color="#81E7FF" />
    </linearGradient>
    <linearGradient x1="0.5" y1="0.99999994" x2="0.5" y2="0" id="gradient_2">
      <stop offset="0" stop-color="#155CDE" />
      <stop offset="1" stop-color="#2EB5F0" />
    </linearGradient>
  </defs>
  <g id="svg">
    <path d="M47 23.5C47 28.9 45.18 33.87 42.11 37.84C37.82 43.41 31.08 47 23.5 47C15.92 47 9.18 43.41 4.89 37.84C1.82 33.87 0 28.9 0 23.5C0 18.15 1.79 13.22 4.8 9.27C9.09 3.63 15.87 0 23.5 0C31.13 0 37.91 3.63 42.2 9.27C45.21 13.22 47 18.15 47 23.5L47 23.5Z" transform="translate(1.5 1.5)" id="Shape" fill="url(#gradient_1)" stroke="none" />
    <path d="M50 25C50 30.029 48.526 34.806 45.744 38.925L45.797 38.958L44.801 40.252C44.799 40.254 44.798 40.255 44.797 40.257C40.973 45.222 35.573 48.484 29.555 49.583C29.007 49.684 28.455 49.771 27.898 49.835C26.944 49.944 25.977 50 25 50C17.188 50 9.971 46.448 5.202 40.255L4.204 38.959L4.257 38.925C1.475 34.809 0 30.031 0 25C0 20.032 1.443 15.3 4.164 11.205L4.109 11.171L5.103 9.865C5.104 9.864 5.105 9.862 5.106 9.861C8.085 5.945 12.035 3.072 16.501 1.468C16.948 1.307 17.4 1.16 17.856 1.025C18.769 0.755 19.701 0.537 20.648 0.373C22.069 0.126 23.523 0 25 0C32.876 0 40.127 3.595 44.894 9.861L45.89 11.171L45.835 11.205C48.557 15.299 50 20.031 50 25ZM33.431 13.125C31.898 7.972 29.381 4.231 26.5 3.253L26.5 13.959C28.885 13.874 31.218 13.594 33.431 13.125ZM23.5 13.96C21.115 13.875 18.782 13.594 16.569 13.126C18.102 7.973 20.619 4.233 23.5 3.254L23.5 13.96ZM8.912 10.001C9.032 9.871 9.152 9.74 9.275 9.613C9.444 9.439 9.618 9.272 9.791 9.105C9.91 8.99 10.028 8.873 10.149 8.761C10.347 8.579 10.55 8.405 10.753 8.231C10.857 8.142 10.957 8.05 11.062 7.964C11.366 7.714 11.676 7.472 11.992 7.239C12.017 7.221 12.041 7.204 12.066 7.186C12.374 6.961 12.687 6.745 13.005 6.537C13.117 6.464 13.233 6.396 13.347 6.325C13.573 6.183 13.8 6.042 14.031 5.908C14.168 5.829 14.308 5.756 14.446 5.681C14.659 5.565 14.872 5.448 15.088 5.339C15.238 5.263 15.391 5.192 15.543 5.12C15.753 5.02 15.964 4.921 16.177 4.828C16.335 4.759 16.495 4.694 16.655 4.628C16.867 4.541 17.08 4.457 17.295 4.377C17.385 4.344 17.476 4.313 17.566 4.28C15.951 6.369 14.612 9.133 13.651 12.375C11.832 11.826 10.123 11.153 8.591 10.351C8.698 10.235 8.805 10.118 8.912 10.001ZM33.822 4.83C33.663 4.761 33.503 4.696 33.342 4.63C33.13 4.544 32.917 4.459 32.704 4.378C32.614 4.345 32.523 4.314 32.433 4.282C34.048 6.371 35.387 9.135 36.348 12.377C38.167 11.827 39.876 11.155 41.408 10.353C41.304 10.237 41.2 10.122 41.095 10.008C40.972 9.875 40.849 9.741 40.723 9.611C40.557 9.44 40.386 9.276 40.216 9.112C40.094 8.995 39.974 8.875 39.849 8.76C39.658 8.584 39.461 8.416 39.264 8.247C39.153 8.152 39.046 8.054 38.934 7.962C38.638 7.718 38.336 7.483 38.028 7.256C37.993 7.231 37.958 7.206 37.923 7.18C37.618 6.958 37.309 6.743 36.994 6.538C36.879 6.463 36.76 6.394 36.644 6.321C36.42 6.181 36.196 6.042 35.968 5.91C35.829 5.83 35.688 5.756 35.547 5.679C35.337 5.563 35.126 5.448 34.911 5.34C34.76 5.264 34.606 5.193 34.453 5.12C34.244 5.021 34.034 4.923 33.822 4.83ZM12.013 23.5C12.072 20.594 12.388 17.835 12.92 15.295C10.691 14.629 8.619 13.775 6.747 12.744C4.579 15.96 3.318 19.629 3.06 23.5L12.013 23.5ZM37.987 23.5C37.928 20.594 37.612 17.835 37.08 15.296C39.309 14.63 41.381 13.776 43.253 12.744C45.421 15.96 46.682 19.629 46.94 23.5L37.987 23.5ZM23.5 23.5L23.5 16.956C20.845 16.87 18.276 16.561 15.839 16.04C15.362 18.359 15.071 20.876 15.012 23.5L23.5 23.5ZM26.5 23.5L26.5 16.956C29.155 16.871 31.724 16.562 34.16 16.041C34.637 18.36 34.928 20.877 34.987 23.501L26.5 23.5ZM12.045 26.5C12.165 29.417 12.544 32.175 13.141 34.695C10.857 35.384 8.734 36.275 6.821 37.358C4.607 34.122 3.322 30.418 3.061 26.5L12.045 26.5ZM23.5 26.5L23.5 33.046C20.925 33.132 18.428 33.434 16.056 33.944C15.518 31.649 15.166 29.136 15.046 26.501L23.5 26.5ZM26.5 26.5L26.5 33.046C29.075 33.131 31.572 33.433 33.944 33.943C34.482 31.649 34.834 29.136 34.953 26.5L26.5 26.5ZM37.955 26.5C37.836 29.417 37.456 32.175 36.859 34.695C39.143 35.384 41.266 36.275 43.179 37.358C45.394 34.12 46.678 30.417 46.939 26.5L37.955 26.5ZM23.5 45.747L23.5 36.042C21.224 36.126 18.997 36.398 16.875 36.845C18.426 41.494 20.803 44.831 23.5 45.747ZM26.5 45.747L26.5 36.042C28.776 36.126 31.003 36.398 33.125 36.845C31.575 41.494 29.197 44.831 26.5 45.747ZM40.979 40.108C40.87 40.224 40.762 40.341 40.651 40.454C40.467 40.641 40.278 40.822 40.089 41.002C39.985 41.101 39.883 41.202 39.777 41.299C39.559 41.498 39.335 41.689 39.11 41.878C39.027 41.948 38.947 42.021 38.864 42.089C38.238 42.6 37.586 43.074 36.912 43.51C36.819 43.57 36.723 43.625 36.629 43.684C36.385 43.836 36.141 43.987 35.891 44.129C35.765 44.201 35.636 44.267 35.509 44.337C35.287 44.458 35.064 44.579 34.837 44.692C34.696 44.763 34.552 44.829 34.409 44.896C34.192 44.999 33.974 45.1 33.754 45.195C33.602 45.261 33.449 45.323 33.296 45.385C33.08 45.473 32.863 45.558 32.644 45.639C32.485 45.698 32.325 45.754 32.165 45.809C31.947 45.884 31.727 45.955 31.506 46.023C31.412 46.052 31.317 46.079 31.222 46.107C33.207 44.11 34.865 41.169 36.046 37.584C37.947 38.159 39.727 38.877 41.321 39.735C41.208 39.86 41.095 39.985 40.979 40.108ZM17.362 45.641C17.517 45.698 17.672 45.753 17.828 45.806C18.051 45.883 18.275 45.956 18.497 46.026C18.59 46.054 18.682 46.081 18.775 46.108C16.79 44.111 15.131 41.17 13.95 37.585C12.049 38.159 10.269 38.877 8.676 39.735C8.794 39.866 8.913 39.996 9.033 40.124C9.135 40.232 9.235 40.341 9.339 40.447C9.533 40.644 9.733 40.835 9.933 41.025C10.026 41.113 10.118 41.204 10.213 41.291C10.449 41.507 10.691 41.714 10.935 41.918C10.999 41.972 11.061 42.029 11.126 42.082C11.757 42.597 12.414 43.075 13.093 43.514C13.167 43.562 13.244 43.605 13.318 43.652C13.581 43.817 13.846 43.979 14.115 44.133C14.23 44.198 14.347 44.259 14.463 44.322C14.696 44.449 14.93 44.575 15.168 44.694C15.303 44.761 15.439 44.824 15.575 44.888C15.799 44.994 16.024 45.099 16.251 45.197C16.398 45.261 16.546 45.321 16.694 45.381C16.915 45.471 17.138 45.558 17.362 45.641Z" id="Shape" fill="url(#gradient_2)" fill-rule="evenodd" stroke="none" />
  </g>
</svg>